<?xml version="1.0" encoding="iso-8859-1"?>
<!-- Generator: Adobe Illustrator 16.0.0, SVG Export Plug-In . SVG Version: 6.00 Build 0)  -->
<!DOCTYPE svg PUBLIC "-//W3C//DTD SVG 1.1//EN" "http://www.w3.org/Graphics/SVG/1.1/DTD/svg11.dtd">
<svg width="100" viewBox="0 0 158.99000549316406 137.6890106201172"><g><svg xmlns="http://www.w3.org/2000/svg" width="158.99000549316406" height="137.6890106201172" viewBox="21.010000228881836 31.56399917602539 158.99000549316406 137.6890106201172" data-type="color">
    <g>
        <path fill-rule="evenodd" clip-rule="evenodd" d="M95.085 31.564l12.647 21.905-12.647 21.905-12.647-21.905 12.647-21.905z" data-color="1" fill="#bababa"></path>
        <path fill-rule="evenodd" clip-rule="evenodd" d="M93.278 53.469h25.294l12.647 21.905h-25.294L93.278 53.469z" data-color="2" fill="#ff6f4f"></path>
        <path fill-rule="evenodd" clip-rule="evenodd" d="M131.219 31.564l12.647 21.905-12.647 21.905-12.647-21.905 12.647-21.905z" data-color="1" fill="#bababa"></path>
        <path fill-rule="evenodd" clip-rule="evenodd" d="M105.925 31.564L93.278 53.469h25.294l12.647-21.905h-25.294L93.278 53.469" data-color="3" fill="#e15370"></path>
        <path fill-rule="evenodd" clip-rule="evenodd" d="M129.412 53.469h25.294l12.647 21.905h-25.294l-12.647-21.905z" data-color="2" fill="#ff6f4f"></path>
        <path fill-rule="evenodd" clip-rule="evenodd" d="M167.353 31.564L180 53.469l-12.647 21.905-12.647-21.905 12.647-21.905z" data-color="1" fill="#bababa"></path>
        <path fill-rule="evenodd" clip-rule="evenodd" d="M142.059 31.564l-12.647 21.905h25.294l12.647-21.905h-25.294l-12.647 21.905" data-color="3" fill="#e15370"></path>
        <path fill-rule="evenodd" clip-rule="evenodd" d="M111.345 84.762h25.294l12.647 21.905h-25.294l-12.647-21.905z" data-color="2" fill="#ff6f4f"></path>
        <path fill-rule="evenodd" clip-rule="evenodd" d="M149.286 62.857l12.647 21.905-12.647 21.905-12.647-21.905 12.647-21.905z" data-color="1" fill="#bababa"></path>
        <path fill-rule="evenodd" clip-rule="evenodd" d="M123.992 62.857l-12.647 21.905h25.294l12.647-21.905h-25.294l-12.647 21.905" data-color="3" fill="#e15370"></path>
        <path fill-rule="evenodd" clip-rule="evenodd" d="M93.278 116.055h25.294l12.647 21.905h-25.294l-12.647-21.905z" data-color="2" fill="#ff6f4f"></path>
        <path fill-rule="evenodd" clip-rule="evenodd" d="M131.219 94.15l12.647 21.905-12.647 21.905-12.647-21.905 12.647-21.905z" data-color="1" fill="#bababa"></path>
        <path fill-rule="evenodd" clip-rule="evenodd" d="M105.925 94.15l-12.647 21.905h25.294l12.647-21.905h-25.294l-12.647 21.905" data-color="3" fill="#e15370"></path>
        <path fill-rule="evenodd" clip-rule="evenodd" d="M75.211 147.348h25.294l12.647 21.905H87.858l-12.647-21.905z" data-color="2" fill="#ff6f4f"></path>
        <path fill-rule="evenodd" clip-rule="evenodd" d="M113.152 125.443l12.647 21.905-12.647 21.905-12.647-21.905 12.647-21.905z" data-color="1" fill="#bababa"></path>
        <path fill-rule="evenodd" clip-rule="evenodd" d="M87.858 125.443l-12.647 21.905h25.294l12.647-21.905H87.858l-12.647 21.905" data-color="3" fill="#e15370"></path>
        <path fill-rule="evenodd" clip-rule="evenodd" d="M57.144 116.055h25.294l12.647 21.905H69.791l-12.647-21.905z" data-color="2" fill="#ff6f4f"></path>
        <path fill-rule="evenodd" clip-rule="evenodd" d="M95.085 94.15l12.647 21.905-12.647 21.905-12.647-21.905L95.085 94.15z" data-color="1" fill="#bababa"></path>
        <path fill-rule="evenodd" clip-rule="evenodd" d="M69.791 94.15l-12.647 21.905h25.294L95.085 94.15H69.791l-12.647 21.905" data-color="3" fill="#e15370"></path>
        <path fill-rule="evenodd" clip-rule="evenodd" d="M39.077 84.762h25.294l12.647 21.905H51.724L39.077 84.762z" data-color="2" fill="#ff6f4f"></path>
        <path fill-rule="evenodd" clip-rule="evenodd" d="M77.018 62.857l12.647 21.905-12.647 21.905-12.647-21.905 12.647-21.905z" data-color="1" fill="#bababa"></path>
        <path fill-rule="evenodd" clip-rule="evenodd" d="M51.724 62.857L39.077 84.762h25.294l12.647-21.905H51.724L39.077 84.762" data-color="3" fill="#e15370"></path>
        <path fill-rule="evenodd" clip-rule="evenodd" d="M21.01 53.469h25.294l12.647 21.905H33.657L21.01 53.469z" data-color="2" fill="#ff6f4f"></path>
        <path fill-rule="evenodd" clip-rule="evenodd" d="M58.951 31.564l12.647 21.905-12.647 21.905-12.647-21.905 12.647-21.905z" data-color="1" fill="#bababa"></path>
        <path fill-rule="evenodd" clip-rule="evenodd" d="M33.657 31.564L21.01 53.469h25.294l12.647-21.905H33.657L21.01 53.469" data-color="3" fill="#e15370"></path>
        <path fill-rule="evenodd" clip-rule="evenodd" d="M57.144 53.469h25.294l12.647 21.905H69.791L57.144 53.469z" data-color="2" fill="#ff6f4f"></path>
        <path fill-rule="evenodd" clip-rule="evenodd" d="M69.791 31.564L57.144 53.469h25.294l12.647-21.905H69.791L57.144 53.469" data-color="3" fill="#e15370"></path>
    </g>
</svg></g></svg>
